<?xml version="1.0" encoding="utf-8"?>

<!DOCTYPE svg PUBLIC "-//W3C//DTD SVG 1.1//EN" "http://www.w3.org/Graphics/SVG/1.1/DTD/svg11.dtd">
<!-- Uploaded to: SVG Repo, www.svgrepo.com, Generator: SVG Repo Mixer Tools -->
<svg xmlns="http://www.w3.org/2000/svg" viewBox="0 0 100 100" width="100" height="100">
  <g fill="currentColor" stroke="none">
    <path d="M73,89c0,2.2-1.8,4-4,4H31c-2.2,0-4-1.8-4-4c0-2.2,1.8-4,4-4h38C71.2,85,73,86.8,73,89z"/>
    <path d="M63,36c0,1.65-1.35,3-3,3H40c-1.65,0-3-1.35-3-3c0-1.65,1.35-3,3-3h20C61.65,33,63,34.35,63,36z"/>
    <path d="M68,82c0,1.65-1.35,3-3,3H35c-1.65,0-3-1.35-3-3c0-1.65,1.35-3,3-3h30C66.65,79,68,80.35,68,82z"/>
    <polygon points="63,20 59,33 41,33 37,20 50,15"/>
    <rect x="48" y="5" width="4" height="10"/>
    <rect x="46" y="7" width="8" height="4"/>
    <rect x="38" y="21" width="24" height="4"/>
    <path d="M62.61,79c-0.946-6.487-3.306-10.059-3.583-40H40.973c-0.277,29.941-2.637,33.513-3.583,40H62.61z"/>
  </g>
</svg>